<?xml version="1.0" encoding="UTF-8"?><svg id="Layer_1" xmlns="http://www.w3.org/2000/svg" viewBox="0 0 752.34 756.4"><defs><style>.cls-1{fill:#21a5e9;}.cls-2{fill:#e5f6ff;}.cls-3{fill:#ff4b4b;}</style></defs><path class="cls-2" d="M426.14,341.08c-10.35-16.78-28.16-27.07-48-27.67-.58-.02-1.16-.03-1.74-.04h-.46c-.58,0-1.15.02-1.73.04-19.85.59-37.65,10.89-48.01,27.67l-198.78,276.01c-62.04-64.06-97.24-149.73-97.56-239.67C29.2,188.42,182.34,32.52,371.24,29.9c1.66-.02,3.28-.03,4.93-.03,92.5,0,179.46,36.02,244.87,101.44,65.41,65.41,101.44,152.38,101.44,244.87s-35.2,176.55-97.56,240.92l-198.78-276.01Z"/><path class="cls-1" d="M376.17,59.73c42.74,0,84.18,8.36,123.15,24.84,37.67,15.94,71.52,38.76,100.61,67.84,29.08,29.08,51.91,62.93,67.85,100.61,16.49,38.97,24.84,80.41,24.84,123.15,0,47.09-10.08,92.37-29.96,134.58-9.66,20.52-21.66,40.09-35.6,58.2l-176.14-244.57c-7.57-11.88-17.91-21.83-30.1-28.9-12.64-7.34-27.04-11.45-41.67-11.91-.82-.03-1.66-.05-2.54-.05h-.44s-.44,0-.44,0c-.88,0-1.72.02-2.54.05-14.62.46-29.02,4.57-41.67,11.91-12.19,7.08-22.53,17.02-30.1,28.9l-176.14,244.57c-13.83-17.97-25.76-37.38-35.38-57.72-19.86-42-30.02-87.06-30.18-133.92-.15-42.14,7.98-83.17,24.17-121.93,15.67-37.53,38.18-71.39,66.91-100.64,28.73-29.25,62.17-52.36,99.4-68.69,38.46-16.87,79.32-25.72,121.45-26.3,1.52-.02,2.99-.03,4.52-.03M376.17,0c-1.79,0-3.55.01-5.35.04C165.63,2.89-.72,172.31,0,377.53c.4,113.91,51.45,215.88,131.79,284.6l219.37-304.61c5.16-8.94,14.42-14.01,24.04-14.26.32-.01.65-.02.97-.02.32,0,.65,0,.97.02,9.61.26,18.88,5.32,24.04,14.26l219.37,304.61c80.65-68.99,131.79-171.5,131.79-285.96C752.34,168.43,583.91,0,376.17,0h0Z"/><path class="cls-3" d="M627.84,713.49l-227.12-315.36c-5.16-8.94-14.42-14.01-24.04-14.26-.32-.01-.65-.02-.97-.02-.32,0-.65,0-.97.02-9.61.26-18.88,5.32-24.04,14.26l-227.12,315.36c-7.9,13.68-3.21,31.17,10.47,39.07,13.68,7.9,31.17,3.21,39.07-10.47l77.12-55.56h250.94l77.12,55.56c7.9,13.68,25.39,18.37,39.07,10.47h0c13.68-7.9,18.37-25.39,10.47-39.07ZM283.26,610.55l92.45-141.34,92.45,141.34h-184.9Z"/></svg>